# xmcd
#
# Track frame offsets:
#	150
#	18960
#	43925
#	78782
#	109505
#	130107
#	156702
#	182007
#	209225
#	237317
#	260585
#	287960
#	310250
#
# Disc length: 4502 seconds
#
# Revision: 1
# Processed by: cddbd v1.4PL0 Copyright (c) Steve Scherf et al.
# Submitted via: audiograbber 1.81.03
#
DISCID=bd11940d
DTITLE=Lurrie Bell - Young Man's Blues
DYEAR=1999
DGENRE=Blues
TTITLE0=Everybody Wants To Win
TTITLE1=Smokin' Dynamite
TTITLE2=Second Hand Man
TTITLE3=Crosscut Saw
TTITLE4=Teenie Weenie Bit
TTITLE5=Cadillac Assembly Line
TTITLE6=Lurrie's Shuffle
TTITLE7=Reconsider Baby
TTITLE8=Ghetto Woman
TTITLE9=1215 W. Belmont
TTITLE10=I'm Your 44
TTITLE11=Going Back To Louisiana
TTITLE12=Everybody Wants To Win
EXTD=
EXTT0=
EXTT1=
EXTT2=
EXTT3=
EXTT4=
EXTT5=
EXTT6=
EXTT7=
EXTT8=
EXTT9=
EXTT10=
EXTT11=
EXTT12=
PLAYORDER=
